<?xml version="1.0" encoding="utf-8"?>
<!-- Generator: Adobe Illustrator 21.1.0, SVG Export Plug-In . SVG Version: 6.00 Build 0)  -->
<svg version="1.1" id="Layer_1" xmlns="http://www.w3.org/2000/svg" xmlns:xlink="http://www.w3.org/1999/xlink" x="0px" y="0px"
	 viewBox="0 0 23 23" style="enable-background:new 0 0 23 23;" xml:space="preserve">
<style type="text/css">
	.st0{fill:#FFFFFF;}
</style>
<path class="st0" d="M11.5,0C5.1,0,0,5.1,0,11.5S5.1,23,11.5,23S23,17.9,23,11.5l0,0C23,5.1,17.9,0,11.5,0z M17.5,10.6l-5.2,5.2
	c-1,1-2.4,1.3-3.1,0.6l0,0c-0.2-0.1-0.3-0.2-0.4-0.3l-3.2-3.2c-0.6-0.6-0.6-1.6,0-2.2s1.6-0.6,2.2,0l0,0l2.3,2.3L15,8.1
	c1-1,2.4-1.3,3.1-0.6S18.5,9.6,17.5,10.6L17.5,10.6z"/>
</svg>
